<?xml version="1.0" encoding="utf-8"?>
<!-- Generator: Adobe Illustrator 28.1.0, SVG Export Plug-In . SVG Version: 6.00 Build 0)  -->
<svg version="1.1" id="Layer_1" xmlns="http://www.w3.org/2000/svg" xmlns:xlink="http://www.w3.org/1999/xlink" x="0px" y="0px"
	 viewBox="0 0 100 100" style="enable-background:new 0 0 100 100;" xml:space="preserve">
<style type="text/css">
	.st0{fill:#0082CD;}
	.st1{fill:none;stroke:#0082CD;stroke-width:7;stroke-miterlimit:10;}
</style>
<g>
	<path class="st0" d="M50,7c23.7,0,43,19.3,43,43S73.7,93,50,93S7,73.7,7,50S26.3,7,50,7 M50,0C22.4,0,0,22.4,0,50s22.4,50,50,50
		s50-22.4,50-50S77.6,0,50,0L50,0z"/>
</g>
<g>
	<path class="st0" d="M50,7c9.3,0,19.7,18.4,19.7,43S59.3,93,50,93S30.3,74.6,30.3,50S40.7,7,50,7 M50,0C35.3,0,23.3,22.4,23.3,50
		s11.9,50,26.7,50s26.7-22.4,26.7-50S64.7,0,50,0L50,0z"/>
</g>
<line class="st1" x1="50" y1="1" x2="50" y2="99.3"/>
<line class="st1" x1="97.9" y1="50" x2="1" y2="50"/>
<line class="st1" x1="92.3" y1="72.4" x2="7.1" y2="72.4"/>
<line class="st1" x1="92.6" y1="27.6" x2="7.4" y2="27.6"/>
</svg>
